<?xml version="1.0" encoding="utf-8"?>
<!-- Generator: Adobe Illustrator 23.0.0, SVG Export Plug-In . SVG Version: 6.00 Build 0)  -->
<svg version="1.1" id="Calque_1" xmlns="http://www.w3.org/2000/svg" xmlns:xlink="http://www.w3.org/1999/xlink" x="0px" y="0px"
	 viewBox="0 0 100 100" style="enable-background:new 0 0 100 100;" xml:space="preserve">
<style type="text/css">
	.st0{fill:#2C5D87;}
</style>
<path class="st0" d="M69.7,44.7h-15v-15c0-1.8-1-3.4-2.5-4.3c-1.5-0.9-3.5-0.9-5,0c-1.5,0.9-2.5,2.5-2.5,4.3v15h-15
	c-1.8,0-3.4,1-4.3,2.5c-0.9,1.5-0.9,3.5,0,5c0.9,1.5,2.5,2.5,4.3,2.5h15v15c0,1.8,1,3.4,2.5,4.3c1.5,0.9,3.5,0.9,5,0
	c1.5-0.9,2.5-2.5,2.5-4.3v-15h15c1.8,0,3.4-1,4.3-2.5c0.9-1.5,0.9-3.5,0-5C73.1,45.6,71.5,44.7,69.7,44.7z"/>
<path class="st0" d="M50,0C36.7,0,24,5.3,14.6,14.6C5.3,24,0,36.7,0,50s5.3,26,14.6,35.4C24,94.7,36.7,100,50,100s26-5.3,35.4-14.6
	C94.7,76,100,63.3,100,50c0-8.8-2.3-17.4-6.7-25C88.9,17.4,82.6,11.1,75,6.7C67.4,2.3,58.8,0,50,0L50,0z M50,90
	c-10.6,0-20.8-4.2-28.3-11.7C14.2,70.8,10,60.6,10,50s4.2-20.8,11.7-28.3C29.2,14.2,39.4,10,50,10s20.8,4.2,28.3,11.7
	C85.8,29.2,90,39.4,90,50c0,7-1.8,13.9-5.4,20c-3.5,6.1-8.6,11.1-14.6,14.6C63.9,88.2,57,90,50,90L50,90z"/>
</svg>
