<?xml version="1.0" encoding="utf-8"?>
<!-- Generator: Adobe Illustrator 23.0.0, SVG Export Plug-In . SVG Version: 6.00 Build 0)  -->
<svg version="1.1" id="Calque_1" xmlns="http://www.w3.org/2000/svg" xmlns:xlink="http://www.w3.org/1999/xlink" x="0px" y="0px"
	 viewBox="0 0 90 100" style="enable-background:new 0 0 90 100;" xml:space="preserve">
<style type="text/css">
	.st0{fill:#2C5D87;}
</style>
<path class="st0" d="M41.3,46.4c2,1.1,5.2,1.1,7.1,0l35.9-20.8c2-1.1,2-3,0-4.1L48.5,0.7c-2-1.1-5.2-1.1-7.2,0L5.4,21.4
	c-2,1.1-2,3,0,4.1L41.3,46.4z"/>
<path class="st0" d="M43.2,55.7c0-2.3-1.6-5.1-3.6-6.2l-36-20.9c-2-1.1-3.6-0.2-3.6,2.1v41.7c0,2.3,1.6,5.1,3.6,6.2l36,20.8
	c2,1.1,3.6,0.2,3.6-2.1L43.2,55.7L43.2,55.7z"/>
<path class="st0" d="M50.2,49.5c-2,1.1-3.6,3.9-3.6,6.2l0,41.6c0,2.3,1.6,3.2,3.6,2.1l36-20.8c2-1.1,3.6-3.9,3.6-6.2l0-41.7
	c0-2.3-1.6-3.2-3.6-2.1L50.2,49.5z"/>
</svg>
